<?xml version="1.0" encoding="utf-8"?>
<!-- Generator: Adobe Illustrator 27.2.0, SVG Export Plug-In . SVG Version: 6.00 Build 0)  -->
<svg version="1.1" id="Capa_1" xmlns="http://www.w3.org/2000/svg" xmlns:xlink="http://www.w3.org/1999/xlink" x="0px" y="0px"
	 viewBox="0 0 48 48" style="enable-background:new 0 0 48 48;" xml:space="preserve">
<style type="text/css">
	.st0{fill:#FFFFFF;}
	.st1{opacity:5.000000e-02;enable-background:new    ;}
	.st2{opacity:7.000000e-02;enable-background:new    ;}
	.st3{fill:#EB0029;}
</style>
<path class="st0" d="M42,37c0,2.8-2.2,5-5,5H11c-2.8,0-5-2.2-5-5V11c0-2.8,2.2-5,5-5h26c2.8,0,5,2.2,5,5V37z"/>
<path class="st1" d="M30,37V26.9c0-1.7-0.8-2.7-2.2-2.7c-0.8,0-1.4,0.5-1.8,1.4c0,0.1,0,0.3,0,1.1L26,37h-7V18h7v1.1
	c1-0.7,2.3-1.1,3.7-1.1c4.5,0,7.3,3.1,7.3,8.3L37,37H30z M11,37V18h3.5c-2,0-3.5-1.5-3.5-3.5c0-2,1.5-3.5,3.5-3.5
	c2,0,3.4,1.4,3.5,3.5c0,2-1.5,3.5-3.5,3.5H18v19H11z"/>
<path class="st2" d="M30.5,36.5v-9.6c0-2-1-3.2-2.7-3.2c-1.3,0-1.9,0.9-2.2,1.7c-0.1,0.2-0.1,1-0.1,1.3l0,9.8h-6v-18h6v1.6
	c0.8-0.8,2.1-1.6,4.2-1.6c4.2,0,6.8,2.9,6.8,7.8l0,10.2H30.5z M11.5,36.5v-18h6v18H11.5z M14.5,17.5c-1.7,0-3-1.3-3-3
	c0-1.7,1.3-3,3-3c1.7,0,3,1.2,3,3C17.5,16.2,16.2,17.5,14.5,17.5L14.5,17.5z"/>
<path class="st3" d="M12,19h5v17h-5V19z M14.5,17L14.5,17C13,17,12,15.9,12,14.5c0-1.4,1-2.5,2.5-2.5c1.5,0,2.5,1.1,2.5,2.5
	C17,15.9,16,17,14.5,17z M36,36h-5v-9.1c0-2.2-1.2-3.7-3.2-3.7c-1.5,0-2.3,1-2.7,2C25,25.5,25,26.5,25,27v9h-5V19h5v2.6
	c0.7-1.1,1.9-2.6,4.7-2.6c3.6,0,6.3,2.2,6.3,7.3L36,36L36,36z"/>
</svg>
