<?xml version="1.0" encoding="UTF-8"?>
<svg id="Capa_2" data-name="Capa 2" xmlns="http://www.w3.org/2000/svg" viewBox="0 0 528.94 56.03">
  <defs>
    <style>
      .cls-1 {
        fill: #fff;
      }
    </style>
  </defs>
  <g id="decorado">
    <g>
      <g>
        <path class="cls-1" d="m135.83,23.17c0,.68,0,2.77-4.35,2.77h-23.56v-9.84h23.56c4.35,0,4.35,2.09,4.35,2.77v4.3Zm-27.91,11.18h23.56c2.07,0,3.02.3,3.43.54.78.49,1.18,1.51,1.18,3.02v3.42c0,1.51-.4,2.53-1.17,3.01-.62.37-1.78.55-3.44.55h-23.56v-10.54Zm32.72-4.15c3.9-1.11,5.88-3.67,5.88-7.64v-5.52c0-6.14-3.58-9.25-10.65-9.25h-39.25v46.22h36.44c9.16,0,13.81-3.14,13.81-9.33v-5.79c0-4.55-2.1-7.46-6.23-8.67"/>
        <path class="cls-1" d="m192.98,34.98h-18.24l9.28-16.95,8.96,16.95Zm-3.24-27.2h-10.73l-26.15,46.22h11.63l5.26-9.91h28.12l5.44,9.91h12.94l-26.38-45.98-.14-.24Z"/>
        <path class="cls-1" d="m267.18,32.03c0,.9.12,3.08.35,6.49-1.11-1.16-2.56-2.48-4.3-3.96l-31.85-26.67-.13-.11h-7.84v46.22h10.42v-24.95c0-1.56-.1-3.52-.31-5.82.88.92,1.83,1.81,2.86,2.67l33.25,27.98.14.11h7.84V7.79h-10.42v24.25Z"/>
        <path class="cls-1" d="m336.12,44.54h-33.79v-27.74h33.79v27.74Zm-.23-36.76h-33.34c-4.49,0-7.5.76-9.18,2.32-1.7,1.57-2.52,4.47-2.52,8.86v23.86c0,4.39.83,7.29,2.52,8.86,1.69,1.56,4.69,2.32,9.18,2.32h33.34c4.5,0,7.5-.76,9.18-2.32,1.7-1.57,2.52-4.46,2.52-8.86v-23.86c0-4.39-.83-7.29-2.52-8.86-1.69-1.56-4.69-2.32-9.18-2.32"/>
        <path class="cls-1" d="m372.47,16.45h23.21c1.93,0,2.8.26,3.18.46.74.44,1.1,1.32,1.1,2.68v5.48c0,1.36-.36,2.24-1.08,2.68-.39.21-1.27.47-3.2.47h-23.21v-11.77Zm27.96,20.44c7.08,0,10.66-3.11,10.66-9.25v-10.61c0-6.14-3.58-9.25-10.66-9.25h-39.26v46.22h11.3v-17.11h9.34l18.12,16.98.14.13h16.62l-20.9-17.11h4.65Z"/>
        <polygon class="cls-1" points="419.82 16.8 440.61 16.8 440.61 54 452.09 54 452.09 16.8 472.97 16.8 472.97 7.78 419.82 7.78 419.82 16.8"/>
        <polygon class="cls-1" points="493.52 44.54 493.52 34.26 514.99 34.26 514.99 25.59 493.52 25.59 493.52 16.45 528.5 16.45 528.5 7.78 482.05 7.78 482.05 54 528.94 54 528.94 44.54 493.52 44.54"/>
      </g>
      <g>
        <path class="cls-1" d="m37.51,27.24l7.78-21.31v21.3c1.14.03,2.31.08,3.47.08,21.32,0,38.61-5.71,38.61-13.4S70.07,0,48.76,0,10.11,6.24,10.11,13.91c0,6.29,11.57,11.6,27.4,13.33h0Z"/>
        <path class="cls-1" d="m36.93,28.83C16.4,29.16,0,35.27,0,42.75c0,6.22,11.38,11.51,27.03,13.28l9.9-27.2h0Z"/>
        <path class="cls-1" d="m45.32,28.82v27.21c18.14-1.14,31.94-6.42,31.94-13.28s-13.8-12.79-31.94-13.94h0Z"/>
      </g>
    </g>
  </g>
</svg>